<mxfile host="app.diagrams.net" modified="2024-04-02T04:16:12.512Z" agent="Mozilla/5.0 (Windows NT 10.0; Win64; x64) AppleWebKit/537.36 (KHTML, like Gecko) Chrome/121.0.0.0 Safari/537.36 Edg/121.0.0.0" etag="A3iBlOjKNmvFYy744zk2" version="23.1.6" type="github">
  <diagram name="第 1 页" id="RBnLheTvENaF5wVA07fA">
    <mxGraphModel dx="1199" dy="799" grid="1" gridSize="10" guides="1" tooltips="1" connect="1" arrows="1" fold="1" page="1" pageScale="1" pageWidth="827" pageHeight="1169" math="0" shadow="0">
      <root>
        <mxCell id="0" />
        <mxCell id="1" parent="0" />
        <mxCell id="ZBSHkCWWrYKDmyR5L4s_-1" value="&lt;h1&gt;2024 Learning Plan&lt;/h1&gt;&lt;p&gt;更新设备，出掉整机，5800+b550m+32G内存+先马机箱+SF600电源&lt;/p&gt;&lt;p&gt;拆下来的2080s装到itx上，DG1作为亮机卡备件&lt;/p&gt;&lt;p&gt;618如果有12/24免息，购入Macbook Pro 14寸 m3pro 18G+1T版，上AC+&lt;/p&gt;" style="text;html=1;spacing=5;spacingTop=-20;whiteSpace=wrap;overflow=hidden;rounded=0;" vertex="1" parent="1">
          <mxGeometry x="110" y="60" width="490" height="120" as="geometry" />
        </mxCell>
      </root>
    </mxGraphModel>
  </diagram>
</mxfile>
